{"title":"ROBINHOOD MALAYALAM MOVIE SONG-ORO KANAVUM-UPSCALED 1280*544","uid":5859534,"size":133662543,"categoryP":"video","categoryS":"music_videos","magnet":"?xt=urn:btih:6cda0f9b400491bebb00dd726aedf42f0b6c128b&amp;dn=ROBINHOOD+MALAYALAM+MOVIE+SONG-ORO+KANAVUM-UPSCALED+1280%2A544&amp;tr=udp%3A%2F%2Ftracker.openbittorrent.com%3A80&amp;tr=udp%3A%2F%2Fopen.demonii.com%3A1337&amp;tr=udp%3A%2F%2Ftracker.coppersurfer.tk%3A6969&amp;tr=udp%3A%2F%2Fexodus.desync.com%3A6969","seeders":0,"leechers":1,"uploader":"a94965","files":10,"time":1285913429,"description":"Video\nID                               : 1\nFormat                           : AVC\nFormat/Info                      : Advanced Video Codec\nFormat profile                   : &lt;a class=&quot;__cf_email__&quot; href=&quot;/cdn-cgi/l/email-protection&quot; data-cfemail=&quot;84c6e5f7e1e8edeae1c4c8b7aab5&quot;&gt;[email&amp;#160;protected]&lt;/a&gt;&lt;script cf-hash='f9e31' type=&quot;text/javascript&quot;&gt;\n/* &lt;![CDATA[ */!function(){try{var t=&quot;currentScript&quot;in document?document.currentScript:function(){for(var t=document.getElementsByTagName(&quot;script&quot;),e=t.length;e--;)if(t[e].getAttribute(&quot;cf-hash&quot;))return t[e]}();if(t&amp;&amp;t.previousSibling){var e,r,n,i,c=t.previousSibling,a=c.getAttribute(&quot;data-cfemail&quot;);if(a){for(e=&quot;&quot;,r=parseInt(a.substr(0,2),16),n=2;a.length-n;n+=2)i=parseInt(a.substr(n,2),16)^r,e+=String.fromCharCode(i);e=document.createTextNode(e),c.parentNode.replaceChild(e,c)}}}catch(u){}}();/* ]]&gt; */&lt;/script&gt;\nFormat settings, CABAC           : No\nFormat settings, ReFrames        : 1 frame\nCodec ID                         : avc1\nCodec ID/Info                    : Advanced Video Coding\nDuration                         : 5mn 4s\nBit rate mode                    : Variable\nBit rate                         : 3 364 Kbps\nWidth                            : 1 280 pixels\nHeight                           : 576 pixels\nDisplay aspect ratio             : 2.222\nFrame rate mode                  : Constant\nFrame rate                       : 23.976 fps\nColor space                      : YUV\nChroma subsampling               : 4:2:0\nBit depth                        : 8 bits\nScan type                        : Progressive\nBits/(Pixel*Frame)               : 0.190\nStream size                      : 122 MiB (96%)\n\nAudio\nID                               : 2\nFormat                           : AAC\nFormat/Info                      : Advanced Audio Codec\nFormat version                   : Version 4\nFormat profile                   : LC\nFormat settings, SBR             : No\nCodec ID                         : 40\nDuration                         : 5mn 4s\nBit rate mode                    : Variable\nBit rate                         : 128 Kbps\nChannel(s)                       : 2 channels\nChannel positions                : Front: L R\nSampling rate                    : 48.0 KHz\nStream size                      : 4.64 MiB (4%)\n\n","torrent":{"xt":"urn:btih:6cda0f9b400491bebb00dd726aedf42f0b6c128b","amp;dn":"ROBINHOOD+MALAYALAM+MOVIE+SONG-ORO+KANAVUM-UPSCALED+1280%2A544","amp;tr":["udp%3A%2F%2Ftracker.openbittorrent.com%3A80","udp%3A%2F%2Fopen.demonii.com%3A1337","udp%3A%2F%2Ftracker.coppersurfer.tk%3A6969","udp%3A%2F%2Fexodus.desync.com%3A6969"],"infoHash":"6cda0f9b400491bebb00dd726aedf42f0b6c128b","infoHashBuffer":{"type":"Buffer","data":[108,218,15,155,64,4,145,190,187,0,221,114,106,237,244,47,11,108,18,139]},"announce":[],"urlList":[]}}